<?xml version="1.0" standalone="no"?>
<!DOCTYPE svg PUBLIC "-//W3C//DTD SVG 20010904//EN"
 "http://www.w3.org/TR/2001/REC-SVG-20010904/DTD/svg10.dtd">
<svg version="1.0" xmlns="http://www.w3.org/2000/svg"
 width="700.000000pt" height="700.000000pt" viewBox="0 0 700.000000 700.000000"
 preserveAspectRatio="xMidYMid meet">
<metadata>
Created by potrace 1.14, written by Peter Selinger 2001-2017
</metadata>
<g transform="translate(0.000000,700.000000) scale(0.100000,-0.100000)"
fill="#000000" stroke="none">
<path d="M3 4753 c3 -1237 7 -2268 10 -2293 3 -25 8 -70 11 -100 17 -166 23
-219 31 -275 4 -22 8 -51 10 -65 3 -24 18 -109 20 -120 1 -3 5 -25 9 -50 42
-242 144 -562 248 -779 260 -541 653 -880 1174 -1010 183 -46 279 -56 514 -56
283 1 465 35 695 130 86 36 190 89 229 118 6 4 51 35 101 70 110 76 267 230
364 357 40 52 76 96 80 98 4 1 15 -12 25 -30 26 -46 119 -162 186 -232 122
-129 302 -261 463 -340 87 -42 242 -101 290 -110 12 -2 42 -9 67 -16 25 -7 56
-14 70 -16 14 -2 54 -9 90 -16 74 -13 410 -17 515 -5 99 10 148 17 165 22 8 2
31 7 50 10 214 35 511 174 699 325 155 124 322 314 416 472 86 145 175 333
228 483 76 217 104 325 162 630 15 79 42 299 50 415 4 47 9 96 13 110 3 14 7
1036 9 2273 l4 2247 -546 0 -545 0 -1 -2097 c0 -1154 -2 -2120 -4 -2148 -2
-27 -6 -89 -9 -137 -26 -394 -130 -747 -279 -948 -81 -108 -149 -168 -257
-228 -164 -90 -420 -110 -625 -50 -223 65 -397 227 -511 472 -29 65 -88 230
-99 280 -33 151 -59 319 -71 450 -13 157 -16 476 -16 2329 l0 2077 -542 -2
-541 -3 -1 -2130 c-1 -1172 -4 -2155 -7 -2185 -3 -30 -8 -84 -12 -120 -21
-220 -57 -400 -113 -562 -147 -428 -420 -642 -817 -640 -330 2 -574 159 -725
467 -44 90 -112 287 -125 365 -3 17 -7 44 -10 62 -3 17 -7 34 -9 37 -2 3 -7
31 -10 62 -4 31 -8 66 -11 77 -2 12 -7 56 -11 99 -4 43 -9 96 -11 118 -3 22
-6 1008 -8 2190 -2 1183 -4 2153 -4 2158 -1 4 -244 7 -541 7 l-541 0 4 -2247z"/>
</g>
</svg>
